<?xml version="1.0" standalone="no"?><!DOCTYPE svg PUBLIC "-//W3C//DTD SVG 1.1//EN" "http://www.w3.org/Graphics/SVG/1.1/DTD/svg11.dtd"><svg t="1696481854703" class="icon" viewBox="0 0 1024 1024" version="1.1" xmlns="http://www.w3.org/2000/svg" p-id="1778" xmlns:xlink="http://www.w3.org/1999/xlink" width="200" height="200"><path d="M108.776 909.08a381.336 94.504 0 1 0 762.672 0 381.336 94.504 0 1 0-762.672 0Z" fill="#B8CBCD" p-id="1779"></path><path d="M931.848 199.216c-31.6 31.592-221.68 107.264-221.68 107.264s75.672-190.088 107.264-221.68c31.592-31.592 82.816-31.6 114.416 0 31.592 31.592 31.592 82.816 0 114.416z" fill="#B2EDA6" p-id="1780"></path><path d="M710.176 330.48a23.984 23.984 0 0 1-22.304-32.872c12.936-32.512 79.192-196.376 112.592-229.776a104.216 104.216 0 0 1 74.168-30.728c28.024 0 54.368 10.912 74.176 30.728 19.816 19.808 30.728 46.152 30.728 74.168s-10.912 54.36-30.728 74.176c-33.408 33.4-197.264 99.656-229.776 112.592a23.72 23.72 0 0 1-8.856 1.712z m164.456-245.376c-15.192 0-29.488 5.92-40.232 16.664-15.264 15.272-50.76 91.344-80.128 160.6 69.256-29.368 145.328-64.856 160.6-80.128 10.744-10.744 16.664-25.032 16.664-40.232s-5.92-29.488-16.664-40.232a56.504 56.504 0 0 0-40.24-16.672z" fill="#3C663E" p-id="1781"></path><path d="M878.104 368.712c-35.816 0-186.432-66.76-186.432-66.76s150.616-66.768 186.432-66.768c35.816 0 64.84 29.888 64.84 66.76 0 36.88-29.032 66.768-64.84 66.768z" fill="#B2EDA6" p-id="1782"></path><path d="M878.104 392.712c-37.944 0-159.736-52.672-196.16-68.816a24 24 0 0 1 0-43.888c36.424-16.144 158.208-68.824 196.16-68.824 48.992 0 88.84 40.712 88.84 90.76s-39.848 90.768-88.84 90.768zM752.8 301.952c56.256 23.144 110.8 42.76 125.304 42.76 22.52 0 40.84-19.184 40.84-42.76 0-23.576-18.32-42.76-40.84-42.76-14.512 0-69.056 19.616-125.304 42.76z" fill="#3C663E" p-id="1783"></path><path d="M774.96 132.048c-0.008 35.816-66.768 186.432-66.768 186.432s-66.768-150.616-66.76-186.432c0-35.816 29.88-64.84 66.76-64.84 36.88 0 66.76 29.032 66.768 64.84z" fill="#B2EDA6" p-id="1784"></path><path d="M708.2 342.48a23.976 23.976 0 0 1-21.936-14.272c-16.152-36.424-68.832-158.208-68.824-196.16 0-48.984 40.712-88.84 90.76-88.84 50.04 0 90.76 39.848 90.768 88.84-0.008 37.952-52.68 159.736-68.832 196.16a24.008 24.008 0 0 1-21.936 14.272z m0-251.272c-23.576 0-42.76 18.328-42.76 40.84 0 14.504 19.616 69.048 42.76 125.304 23.144-56.256 42.768-110.8 42.768-125.304-0.016-22.52-19.192-40.84-42.768-40.84z" fill="#3C663E" p-id="1785"></path><path d="M492.792 316.888c60.464-38.536 143.864-40 193.048 9.184 49.168 49.184 51.72 134.928 7.888 191.76C601.36 637.6 507.52 704.048 371.144 803.896c-83.328 61-237.456 172.696-286.64 123.512s64.176-210.688 122.224-287.928C289.68 529.144 392.024 381.12 492.792 316.888z" fill="#FFBAB0" p-id="1786"></path><path d="M118.392 963.584c-21.008 0-38.12-6.464-50.864-19.208-29.408-29.4-48.96-94.496 120.008-319.312 10.24-13.632 20.784-27.832 31.576-42.376 79.096-106.576 168.744-227.376 260.768-286.032 32.512-20.72 71.24-32.136 109.072-32.136 44.672 0 85.104 15.832 113.848 44.584 56.72 56.728 61.168 156.936 9.928 223.384-90.72 117.64-183.176 185.264-311.128 278.856l-16.28 11.912c-92.744 67.896-197.496 140.328-266.928 140.328zM588.96 312.52c-28.8 0-58.368 8.744-83.272 24.608-84.552 53.896-171.4 170.92-248.024 274.168a8410.16 8410.16 0 0 1-31.76 42.616c-129.04 171.688-138.936 242.032-124.44 256.536 1.272 1.272 5.152 5.144 16.928 5.144 59.544 0 180.464-88.512 238.568-131.056l16.296-11.92C498.016 681.36 588.16 615.424 674.728 503.184c37.04-48.024 34.416-119.856-5.848-160.136-19.688-19.688-48.064-30.528-79.92-30.528z" fill="#783741" p-id="1787"></path><path d="M252.872 681.016c82.944-110.344 185.296-258.36 286.072-322.592 51.776-33 120.304-38.696 169.84-8.8a125.824 125.824 0 0 0-18.32-23.544c-49.192-49.184-132.584-47.72-193.048-9.184-100.784 64.224-203.136 212.248-286.08 322.584-58.056 77.24-171.416 238.744-122.224 287.928 7.592 7.592 17.704 11.328 29.656 12.032-4.136-66.8 84.856-192.912 134.104-258.424z" fill="#FFFFFF" p-id="1788"></path><path d="M125.6 933.144c-16.048 0-30.208-5.008-41.792-16.592l-16-16a23.984 23.984 0 0 1 0-33.936 23.984 23.984 0 0 1 33.936 0l16 16c5.376 5.36 25.656 3.648 65.112-18.92 38.712-22.128 82.712-56.352 121.536-86.552 16.304-12.68 31.696-24.664 45.192-34.536l14.968-10.952C478.88 648.024 561.48 587.608 640.72 484.864c33.512-43.464 31.032-116.064-5.2-152.312a24 24 0 0 1 16.976-40.976h8.28a24 24 0 0 1 23.952 25.504c37.832 55.416 36.728 141.672-5.992 197.08-83.416 108.16-168.328 170.272-285.848 256.232l-14.952 10.936c-12.928 9.472-28.056 21.24-44.072 33.696-72.168 56.144-151.84 118.112-208.264 118.12z" fill="#783741" p-id="1789"></path><path d="M494.384 405.36l50.92 50.912" fill="#FFBAB0" p-id="1790"></path><path d="M545.304 472.272a15.96 15.96 0 0 1-11.312-4.68l-50.92-50.912a16 16 0 0 1 22.632-22.632l50.92 50.912a16 16 0 0 1-11.32 27.312z" fill="#783741" p-id="1791"></path><path d="M494.392 529.816l50.912 50.912" fill="#FFBAB0" p-id="1792"></path><path d="M545.304 596.728a15.936 15.936 0 0 1-11.312-4.688l-50.912-50.912a16 16 0 1 1 22.624-22.624l50.912 50.912a16 16 0 0 1-11.312 27.312z" fill="#783741" p-id="1793"></path><path d="M353.864 546.784l50.912 50.912" fill="#FFBAB0" p-id="1794"></path><path d="M404.776 613.696a15.92 15.92 0 0 1-11.312-4.688l-50.912-50.912a16 16 0 1 1 22.624-22.624l50.912 50.912a16 16 0 0 1-11.312 27.312z" fill="#783741" p-id="1795"></path><path d="M330.344 667.584l50.904 50.912" fill="#FFBAB0" p-id="1796"></path><path d="M381.248 734.496a15.92 15.92 0 0 1-11.312-4.688l-50.912-50.912a16 16 0 1 1 22.624-22.624l50.912 50.912a16 16 0 0 1-11.312 27.312z" fill="#783741" p-id="1797"></path><path d="M228.776 739.584l50.912 50.912" fill="#FFBAB0" p-id="1798"></path><path d="M279.688 806.496a15.92 15.92 0 0 1-11.312-4.688l-50.912-50.912a16 16 0 1 1 22.624-22.624l50.912 50.912a16 16 0 0 1-11.312 27.312z" fill="#783741" p-id="1799"></path><path d="M118.392 963.584c-21.008 0-38.12-6.464-50.864-19.208-29.408-29.4-48.96-94.496 120.008-319.312 10.24-13.632 20.784-27.832 31.576-42.376 79.096-106.576 168.744-227.376 260.768-286.032 32.512-20.72 71.24-32.136 109.072-32.136 44.672 0 85.104 15.832 113.848 44.584 56.72 56.728 61.168 156.936 9.928 223.384-90.72 117.64-183.176 185.264-311.128 278.856l-16.28 11.912c-92.744 67.896-197.496 140.328-266.928 140.328zM588.96 312.52c-28.8 0-58.368 8.744-83.272 24.608-84.552 53.896-171.4 170.92-248.024 274.168a8410.16 8410.16 0 0 1-31.76 42.616c-129.04 171.688-138.936 242.032-124.44 256.536 1.272 1.272 5.152 5.144 16.928 5.144 59.544 0 180.464-88.512 238.568-131.056l16.296-11.92C498.016 681.36 588.16 615.424 674.728 503.184c37.04-48.024 34.416-119.856-5.848-160.136-19.688-19.688-48.064-30.528-79.92-30.528z" fill="#783741" p-id="1800"></path></svg>