<?xml version="1.0" standalone="no"?><!DOCTYPE svg PUBLIC "-//W3C//DTD SVG 1.1//EN" "http://www.w3.org/Graphics/SVG/1.1/DTD/svg11.dtd"><svg t="1696481876606" class="icon" viewBox="0 0 1024 1024" version="1.1" xmlns="http://www.w3.org/2000/svg" p-id="2583" xmlns:xlink="http://www.w3.org/1999/xlink" width="200" height="200"><path d="M328.8 499.384a24 24 0 0 1-23.752-27.608c0.68-4.496 17.568-111.24 86.912-219.256 64.712-100.792 188.688-220.936 411.864-220.936a24 24 0 1 1 0 48c-161.176 0-285.856 66.448-370.584 197.496-64.328 99.496-80.584 200.944-80.744 201.96a24.016 24.016 0 0 1-23.696 20.344z" fill="#3C663E" p-id="2584"></path><path d="M758.128 566.256a24 24 0 0 1-21.536-13.376c-6.264-12.68-151.08-312.92 50.264-514.264a23.984 23.984 0 0 1 33.936 0 23.984 23.984 0 0 1 0 33.936C643.52 249.824 778.24 528.824 779.624 531.624a24.016 24.016 0 0 1-21.496 34.632z" fill="#3C663E" p-id="2585"></path><path d="M891.28 360.824a24 24 0 0 1-12.616-3.584c-3.344-2.064-82.24-51.6-108.832-136.84-26.584-85.24 10.16-170.84 11.736-174.448a24 24 0 0 1 34.6-10.792c3.344 2.072 82.232 51.616 108.816 136.84 26.6 85.24-10.144 170.84-11.72 174.448a24.024 24.024 0 0 1-21.984 14.376z m-75.36-265.576c-6.92 27.504-13 70.016-0.272 110.856 12.832 41.112 41.936 72.544 63.224 91.144 6.936-27.504 13.04-70.064 0.288-110.952-12.728-40.832-41.904-72.344-63.24-91.048z" fill="#3C663E" p-id="2586"></path><path d="M132.776 837.08a381.336 94.504 0 1 0 762.672 0 381.336 94.504 0 1 0-762.672 0Z" fill="#B8CBCD" p-id="2587"></path><path d="M304.776 663.584m-180 0a180 180 0 1 0 360 0 180 180 0 1 0-360 0Z" fill="#FFBAB0" p-id="2588"></path><path d="M304.776 867.584c-112.488 0-204-91.512-204-204s91.512-204 204-204 204 91.512 204 204-91.52 204-204 204z m0-360c-86.016 0-156 69.984-156 156s69.984 156 156 156 156-69.984 156-156-69.984-156-156-156z" fill="#783741" p-id="2589"></path><path d="M170.208 700.2c0-94.536 76.64-171.176 171.176-171.176 37.072 0 71.36 11.824 99.384 31.848-31.04-43.448-81.856-71.792-139.328-71.792-94.544 0-171.176 76.648-171.176 171.176 0 57.464 28.344 108.28 71.792 139.328a170.368 170.368 0 0 1-31.848-99.384z" fill="#FFFFFF" p-id="2590"></path><path d="M460.776 595.584c0 136-98.504 220-220 220" fill="#FFBAB0" p-id="2591"></path><path d="M240.776 839.584a24 24 0 1 1 0-48c115.4 0 196-80.6 196-196a24 24 0 1 1 48 0c0 141.384-102.616 244-244 244z" fill="#783741" p-id="2592"></path><path d="M304.776 867.584c-112.488 0-204-91.512-204-204s91.512-204 204-204 204 91.512 204 204-91.52 204-204 204z m0-360c-86.016 0-156 69.984-156 156s69.984 156 156 156 156-69.984 156-156-69.984-156-156-156z" fill="#783741" p-id="2593"></path><path d="M740.776 731.584m-180 0a180 180 0 1 0 360 0 180 180 0 1 0-360 0Z" fill="#FFBAB0" p-id="2594"></path><path d="M740.776 935.584c-112.488 0-204-91.512-204-204s91.512-204 204-204 204 91.512 204 204-91.52 204-204 204z m0-360c-86.016 0-156 69.984-156 156s69.984 156 156 156 156-69.984 156-156-69.984-156-156-156z" fill="#783741" p-id="2595"></path><path d="M606.208 768.2c0-94.536 76.64-171.176 171.176-171.176 37.072 0 71.36 11.824 99.384 31.848-31.04-43.448-81.856-71.792-139.328-71.792-94.544 0-171.184 76.648-171.184 171.176 0 57.464 28.352 108.28 71.792 139.328a170.416 170.416 0 0 1-31.84-99.384z" fill="#FFFFFF" p-id="2596"></path><path d="M896.776 663.584c0 129.336-82.672 220-220 220" fill="#FFBAB0" p-id="2597"></path><path d="M676.776 907.584a24 24 0 1 1 0-48c120.896 0 196-75.104 196-196a24 24 0 1 1 48 0c0 145.944-98.056 244-244 244z" fill="#783741" p-id="2598"></path><path d="M740.776 935.584c-112.488 0-204-91.512-204-204s91.512-204 204-204 204 91.512 204 204-91.52 204-204 204z m0-360c-86.016 0-156 69.984-156 156s69.984 156 156 156 156-69.984 156-156-69.984-156-156-156z" fill="#783741" p-id="2599"></path></svg>