<?xml version="1.0" standalone="no"?><!DOCTYPE svg PUBLIC "-//W3C//DTD SVG 1.1//EN" "http://www.w3.org/Graphics/SVG/1.1/DTD/svg11.dtd"><svg t="1696481894698" class="icon" viewBox="0 0 1024 1024" version="1.1" xmlns="http://www.w3.org/2000/svg" p-id="3356" xmlns:xlink="http://www.w3.org/1999/xlink" width="200" height="200"><path d="M593.624 475.4l-6.976-311.28c-45.648 18.144-90.232 42.36-130.904 74.512-61.48 48.616-107.392 110.176-141.632 173.504l279.512 63.264z" fill="#FFFFFF" p-id="3357"></path><path d="M593.624 499.408a23.84 23.84 0 0 1-5.296-0.592l-279.512-63.264a23.96 23.96 0 0 1-16.552-13.488 23.96 23.96 0 0 1 0.744-21.336c40.112-74.176 89.856-135.048 147.848-180.912 39.792-31.456 85.856-57.696 136.936-77.992a24 24 0 0 1 32.856 21.768l6.976 311.28a23.968 23.968 0 0 1-24 24.536zM351.056 395.896l217.888 49.312-5.496-244.856c-34.048 16.112-65.168 35.24-92.832 57.12-45.528 36.008-85.664 82.488-119.56 138.424z" fill="#6E4123" p-id="3358"></path><path d="M143.456 869.08a381.336 94.504 0 1 0 762.672 0 381.336 94.504 0 1 0-762.672 0Z" fill="#B8CBCD" p-id="3359"></path><path d="M329.04 670.608s239.488 40.096 397.16-84.6c157.696-124.704 173.856-366.976 173.856-366.976s-231.288-33.64-388.968 91.056C353.416 434.784 329.04 670.608 329.04 670.608z" fill="#F7BB83" p-id="3360"></path><path d="M419.848 692.752h-0.016c-54.8 0-91.872-6.104-93.432-6.36l-14.824-2.488 1.544-14.944c1.024-9.896 26.92-244 188.048-371.424 103.088-81.52 234.608-98.64 326.792-98.64 44.344 0 73.192 4.128 74.408 4.296l14.648 2.136-0.992 14.768c-0.672 10.184-18.496 250.832-179.896 378.464-98.44 77.848-226.328 94.192-316.28 94.192z m-72.704-35.904c15.304 1.72 41.008 3.896 72.688 3.896 84.88 0 205.208-15.144 296.456-87.288 127.84-101.104 159.528-286.104 166.216-340.248a622.72 622.72 0 0 0-54.536-2.312c-71.312 0-206.008 11.92-306.944 91.736C393.392 423.568 355.752 603.36 347.144 656.848z" fill="#6E4123" p-id="3361"></path><path d="M654.808 229.52a262.808 262.808 0 0 0 56.864 163.992 262.8 262.8 0 0 0 101.832 78.384l44.552-71.76 42-181.112-122.136-10.504-123.112 21z" fill="#F6E89A" p-id="3362"></path><path d="M419.848 692.752h-0.016c-54.8 0-91.872-6.104-93.432-6.36a16 16 0 0 1-13.272-17.432c1.024-9.896 26.92-244 188.048-371.424 103.088-81.52 234.608-98.64 326.792-98.64 44.344 0 73.192 4.128 74.408 4.296a15.992 15.992 0 0 1 13.656 16.896c-0.672 10.184-18.496 250.832-179.896 378.464-98.448 77.856-226.336 94.2-316.288 94.2z m-72.704-35.904c15.304 1.72 41.008 3.896 72.688 3.896 84.88 0 205.208-15.144 296.456-87.288 127.84-101.104 159.528-286.104 166.216-340.248a622.72 622.72 0 0 0-54.536-2.312c-71.312 0-206.008 11.92-306.944 91.736C393.392 423.568 355.752 603.36 347.144 656.848z" fill="#6E4123" p-id="3363"></path><path d="M419.744 700.208h-0.016c-55.464 0-93.176-6.2-94.76-6.472a24 24 0 0 1-19.984-25.28c0.32-4.832 8-111.032 59.056-220.92l-55.336-12.52a23.96 23.96 0 0 1-16.552-13.488 23.96 23.96 0 0 1 0.744-21.336c40.104-74.168 89.84-135.04 147.848-180.912 39.816-31.472 85.88-57.712 136.928-78a24.08 24.08 0 0 1 22.128 2.296 24.024 24.024 0 0 1 10.736 19.472l1.24 55.456c72.696-24.528 146.064-30.104 197.664-30.104 55.304 0 92.888 6.168 94.472 6.432a24 24 0 0 1 19.992 25.272c-0.688 10.32-18.76 254.384-182.92 384.2-100.24 79.264-230.024 95.904-321.24 95.904z m-64.344-51.064c15.352 1.504 37.696 3.064 64.328 3.064h0.016c83.608 0 202.04-14.84 291.472-85.56 120.048-94.928 153.784-265.992 162.232-327.216a665.256 665.256 0 0 0-64.008-3.032c-54.896 0-136.16 6.704-211.528 38.656a23.992 23.992 0 0 1-33.36-21.552l-1.2-53.688c-34.032 16.104-65.16 35.24-92.832 57.12-45.544 36.032-85.68 82.504-119.568 138.44l53.504 12.112a23.968 23.968 0 0 1 16.528 13.432 24.032 24.032 0 0 1-0.656 21.288c-43.512 81.408-59.512 167.256-64.928 206.936z" fill="#6E4123" p-id="3364"></path><path d="M813.504 487.904c-2.128 0-4.28-0.432-6.36-1.328a280.416 280.416 0 0 1-108.016-83.144c-39.552-50.016-60.416-110.168-60.32-173.936a16 16 0 0 1 16-15.976h0.024a16 16 0 0 1 15.976 16.024c-0.088 56.488 18.392 109.752 53.416 154.048a248.4 248.4 0 0 0 95.656 73.624 16 16 0 0 1-6.376 30.688z" fill="#6E4123" p-id="3365"></path><path d="M772.088 315.144m-32 0a32 32 0 1 0 64 0 32 32 0 1 0-64 0Z" fill="#FFFFFF" p-id="3366"></path><path d="M772.112 363.136a47.736 47.736 0 0 1-37.672-18.224 47.656 47.656 0 0 1-10.024-35.336 47.672 47.672 0 0 1 17.904-32.088 48.152 48.152 0 0 1 29.752-10.352 47.76 47.76 0 0 1 37.672 18.232 48.048 48.048 0 0 1-7.88 67.416 48.16 48.16 0 0 1-29.752 10.352z m-0.04-64c-2.52 0-6.296 0.6-9.896 3.456-3.36 2.656-5.488 6.456-5.976 10.696s0.696 8.424 3.344 11.776c3.056 3.864 7.632 6.08 12.568 6.08a16.024 16.024 0 0 0 12.528-25.928 15.96 15.96 0 0 0-12.568-6.08z" fill="#6E4123" p-id="3367"></path><path d="M674.936 708.016s61.44-43.312 68.608-104.752c7.176-61.448-42.616-117.744-42.616-117.744s-61.448 43.312-68.616 104.744c-7.176 61.44 42.624 117.752 42.624 117.752z" fill="#F7BB83" p-id="3368"></path><path d="M674.944 724.016c-4.448 0-8.848-1.84-11.992-5.4-2.224-2.52-54.456-62.448-46.528-130.208 7.904-67.752 72.536-114.024 75.288-115.96a15.984 15.984 0 0 1 21.2 2.48c2.224 2.512 54.448 62.432 46.52 130.2-7.904 67.76-72.528 114.032-75.28 115.968-2.784 1.968-6 2.92-9.208 2.92z m23.344-215.656c-16.72 14.984-45.672 45.952-50.088 83.76-4.44 38 16.544 74.672 29.376 93.064 16.728-15 45.664-45.96 50.08-83.768 4.44-38.008-16.544-74.672-29.368-93.056z" fill="#6E4123" p-id="3369"></path><path d="M674.936 732.016a24 24 0 0 1-14.104-4.576c-1.552-1.128-38.184-28.144-52.224-73.888a24 24 0 0 1 45.888-14.08c4.752 15.496 13.696 28 21.288 36.512 16.072-15.112 40.096-42.72 43.92-75.504l4.76-40.672a24 24 0 0 1 47.672 5.576l-4.76 40.664c-8.32 71.264-75.752 119.552-78.616 121.576a23.92 23.92 0 0 1-13.824 4.392z" fill="#6E4123" p-id="3370"></path><path d="M222.536 681.832a61.248 61.248 0 0 0 96.088-75.984c-20.976-26.536-157.104-82.488-213.624-37.784-5.648 4.472 96.552 87.24 117.536 113.768z" fill="#F7BB83" p-id="3371"></path><path d="M270.616 729.088a84.816 84.816 0 0 1-66.904-32.376c-8.672-10.96-38.096-37.264-61.728-58.4-55.56-49.664-61.648-55.616-61.192-70.48a25.224 25.224 0 0 1 9.32-18.592c18.408-14.552 43.272-21.936 73.928-21.936 65.144 0 151.232 35.592 173.416 63.656a84.656 84.656 0 0 1 17.808 62.76 84.656 84.656 0 0 1-31.8 56.984 85.552 85.552 0 0 1-52.848 18.384zM145.384 576.752c9.032 8.296 19.616 17.76 28.584 25.784 28.872 25.816 56.152 50.184 67.392 64.408a37.104 37.104 0 0 0 29.256 14.152 36.896 36.896 0 0 0 23.08-8.04 36.96 36.96 0 0 0 13.888-24.888 37 37 0 0 0-7.784-27.424c-8.72-10.984-77.432-45.432-135.768-45.432-6.728 0-12.968 0.48-18.648 1.44z" fill="#6E4123" p-id="3372"></path><path d="M298.528 777.928a61.256 61.256 0 1 1 96.088-75.992c20.984 26.536 44.056 171.88-12.472 216.584-5.648 4.472-62.632-114.056-83.616-140.592z" fill="#F7BB83" p-id="3373"></path><path d="M381.784 942.648c-18.096 0-22.816-8.696-59.504-76.336-15.104-27.856-33.904-62.528-42.576-73.504-29.16-36.872-22.88-90.6 13.992-119.76a85.576 85.576 0 0 1 52.832-18.384c26.248 0 50.64 11.808 66.904 32.376 26.64 33.696 53.128 195.312-16.4 250.304-4.232 3.36-9.84 5.304-15.248 5.304z m-35.248-239.976a36.856 36.856 0 0 0-23.072 8.04 36.96 36.96 0 0 0-13.888 24.896 36.984 36.984 0 0 0 7.792 27.44c11.232 14.216 28.664 46.352 47.12 80.384a2778.368 2778.368 0 0 0 18.808 34.288c22.048-50.216 4.48-145.712-7.496-160.896a37.12 37.12 0 0 0-29.264-14.152z" fill="#6E4123" p-id="3374"></path></svg>