<?xml version="1.0" standalone="no"?><!DOCTYPE svg PUBLIC "-//W3C//DTD SVG 1.1//EN" "http://www.w3.org/Graphics/SVG/1.1/DTD/svg11.dtd"><svg t="1696481917503" class="icon" viewBox="0 0 1024 1024" version="1.1" xmlns="http://www.w3.org/2000/svg" p-id="4264" xmlns:xlink="http://www.w3.org/1999/xlink" width="200" height="200"><path d="M146.616 821.08a381.344 94.504 0 1 0 762.688 0 381.344 94.504 0 1 0-762.688 0Z" fill="#B8CBCD" p-id="4265"></path><path d="M213.744 703.52L305.84 795.624c96.728 96.728 263.176 127.096 418.248-27.968 112.2-112.2 298.472-465.624 38.92-605.192-24.696-13.288 27.96 27.96-4.104-4.112" fill="#B2EDA6" p-id="4266"></path><path d="M494.248 900.408c-79.88 0-152.168-34.592-205.384-87.808L196.776 720.488a24 24 0 1 1 33.936-33.944l92.096 92.104c82.192 82.192 232.16 124.168 384.312-27.968 80.52-80.52 181.064-266.896 160.4-407.392-9.28-63.144-41.784-112.968-96.712-148.4-5.696 0.192-12.616-1.632-20.728-7.664-22.272-16.568-19.968-31.016-14.112-40.224 1.776-2.792 5.224-7.024 10.84-9.384a24 24 0 0 1 29.064 3.768c0.536 0.536 1.096 1.088 1.656 1.664 78.752 43.384 125 108.392 137.48 193.264 23.992 163.176-89.616 363.984-173.952 448.32-82.256 82.256-168.2 115.776-246.808 115.776z" fill="#3C663E" p-id="4267"></path><path d="M596.16 679.616c-112.2 112.208-281.584 124.744-378.312 28.016-96.72-96.72-84.176-266.096 28.024-378.304C358.072 217.12 666.288 65.736 763.008 162.464c118.824 118.816-54.648 404.944-166.848 517.152z" fill="#B2EDA6" p-id="4268"></path><path d="M381.384 788.712c-67.768 0-129.864-24.776-174.848-69.768-102.808-102.808-90.232-282.664 28.024-400.928C328.168 224.4 539.112 115.584 670.776 115.584c45.112 0 79.944 11.968 103.544 35.568 57.288 57.28 59.576 153.624 6.624 278.608-44.52 105.104-119.208 206.904-173.48 261.168-62.136 62.144-144.544 97.784-226.08 97.784z m289.392-641.128c-124.2 0-324.312 103.776-413.592 193.056-105.784 105.792-118.352 265.344-28.024 355.68 38.944 38.944 93.008 60.392 152.224 60.392 73.12 0 147.272-32.224 203.464-88.408 52.072-52.072 123.792-149.88 166.64-251.024 33.088-78.096 59.976-183.728 0.208-243.504-17.384-17.376-44.608-26.192-80.92-26.192z" fill="#3C663E" p-id="4269"></path><path d="M230.112 726.576c-96.72-96.72-96.448-285.04 15.76-397.248 112.2-112.2 431.52-263.136 528.24-166.408" fill="#B2EDA6" p-id="4270"></path><path d="M230.112 750.576a23.92 23.92 0 0 1-16.968-7.032c-108.712-108.712-101.192-314.232 15.76-431.184 60.032-60.032 171.944-127.168 278.488-167.056 76.904-28.8 216.048-67.016 283.696 0.656a24 24 0 1 1-33.936 33.944c-35.024-35.008-122.08-31.144-232.928 10.36C425.08 227.368 317.6 291.536 262.84 346.296c-99.184 99.192-106.704 272.36-15.76 363.312a24 24 0 0 1-16.968 40.968z" fill="#3C663E" p-id="4271"></path><path d="M468.6 875.552c-64.96 0-125.36-24.984-171.944-71.576a24 24 0 1 1 33.936-33.944c42.144 42.152 95.88 61.8 155.552 56.776 59.936-5.032 120.736-35.584 171.176-86.024 48.912-48.92 119.296-145.752 166.256-251.808 46.864-105.832 53.976-186.296 19.512-220.76a23.984 23.984 0 0 1 0-33.936 23.984 23.984 0 0 1 33.936 0c115.192 115.192-80.392 435.064-185.776 540.44-58.456 58.456-129.872 93.944-201.104 99.92-7.216 0.608-14.408 0.912-21.544 0.912z" fill="#3C663E" p-id="4272"></path><path d="M481.84 574.392c-41.808 41.8-104.904 46.472-140.928 10.44-36.048-36.04-31.368-99.144 10.432-140.944 41.808-41.8 156.632-98.192 192.664-62.16 44.256 44.256-20.368 150.856-62.168 192.664z" fill="#F7BB83" p-id="4273"></path><path d="M401.816 625.072c-27.92 0-53.568-10.272-72.216-28.928-20.776-20.768-30.936-49.472-28.616-80.808 2.248-30.44 16.12-59.832 39.048-82.768 32.72-32.72 113.072-78.352 169.608-78.352 19.568 0 34.936 5.448 45.68 16.192 17.064 17.056 31.72 50.824 4.616 114.8-18.288 43.168-47.408 81.112-66.784 100.488-25.024 25.032-58.312 39.376-91.336 39.376z m107.816-238.848c-43.2 0-115.736 37.736-146.984 68.976-17.504 17.504-28.08 39.704-29.768 62.504-1.616 21.904 5.248 41.728 19.336 55.816 12.608 12.616 30.216 19.552 49.592 19.552 24.6 0 49.64-10.928 68.712-30 18.712-18.712 44.504-53.904 59.936-90.336 9.112-21.488 21.504-60.416 2.224-79.688-4.512-4.528-12.272-6.824-23.048-6.824z" fill="#6E4123" p-id="4274"></path><path d="M391.096 616.84c-27.872 0-53.232-10.152-72.136-29.064a24 24 0 1 1 33.936-33.944c10.816 10.816 26.232 16.048 43.304 14.808 18.456-1.368 36.488-10 50.792-24.296 38.104-38.112 79.416-118.16 56.48-141.096a24 24 0 1 1 33.936-33.944c53.872 53.872-10.192 162.688-56.48 208.976-22.432 22.432-51.264 36.008-81.176 38.224-2.904 0.232-5.8 0.336-8.656 0.336z" fill="#6E4123" p-id="4275"></path><path d="M385.784 478.336c36.184-36.184 127.048-83.256 174.192-71.896-2.328-7.896-6.248-15-12.192-20.944-36.048-36.04-150.872 20.352-192.672 62.16-41.808 41.8-46.472 104.904-10.44 140.944 5.296 5.296 11.216 9.6 17.528 13.152-20.608-36.64-12.072-87.752 23.584-123.416z" fill="#FFFFFF" p-id="4276"></path><path d="M401.816 625.072c-27.92 0-53.568-10.272-72.216-28.928-20.776-20.768-30.936-49.472-28.616-80.808 2.248-30.44 16.12-59.832 39.048-82.768 32.72-32.72 113.072-78.352 169.608-78.352 19.568 0 34.936 5.448 45.68 16.192 17.064 17.056 31.72 50.824 4.616 114.8-18.288 43.168-47.408 81.112-66.784 100.488-25.024 25.032-58.312 39.376-91.336 39.376z m107.816-238.848c-43.2 0-115.736 37.736-146.984 68.976-17.504 17.504-28.08 39.704-29.768 62.504-1.616 21.904 5.248 41.728 19.336 55.816 12.608 12.616 30.216 19.552 49.592 19.552 24.6 0 49.64-10.928 68.712-30 18.712-18.712 44.504-53.904 59.936-90.336 9.112-21.488 21.504-60.416 2.224-79.688-4.512-4.528-12.272-6.824-23.048-6.824z" fill="#6E4123" p-id="4277"></path></svg>