<?xml version="1.0" standalone="no"?><!DOCTYPE svg PUBLIC "-//W3C//DTD SVG 1.1//EN" "http://www.w3.org/Graphics/SVG/1.1/DTD/svg11.dtd"><svg t="1696481914218" class="icon" viewBox="0 0 1024 1024" version="1.1" xmlns="http://www.w3.org/2000/svg" p-id="4118" xmlns:xlink="http://www.w3.org/1999/xlink" width="200" height="200"><path d="M140.776 833.872a381.336 94.504 0 1 0 762.672 0 381.336 94.504 0 1 0-762.672 0Z" fill="#B8CBCD" p-id="4119"></path><path d="M445.736 76.504C341.04 52.608 236.784 118.104 212.88 222.8c-14.488 63.472 4.016 126.64 44.04 171.984-49.592 35.576-86.928 88.664-101.584 152.848-31.864 139.6 55.464 278.608 195.064 310.472 137.912 31.488 275.168-53.408 309.2-190.056 119.904 1.928 228.928-79.968 256.68-201.552 31.872-139.6-55.464-278.6-195.056-310.472a257.992 257.992 0 0 0-151.6 11.08c-26.232-44.296-69.736-78.232-123.888-90.6z" fill="#FFFFFF" p-id="4120"></path><path d="M408.32 888.664c-21.168 0-42.448-2.408-63.256-7.16-73.768-16.832-136.56-61.4-176.816-125.472s-53.144-139.976-36.304-213.744a282.832 282.832 0 0 1 91.344-151.56c-34.872-50.192-47.504-113.264-33.808-173.272C212.32 117.44 299.824 47.584 402.288 47.584c16.328 0 32.744 1.856 48.792 5.52 52.392 11.968 97.312 41.912 128.344 85.152a282.928 282.928 0 0 1 147.144-5.624c73.76 16.832 136.552 61.4 176.808 125.464 40.256 64.072 53.144 139.984 36.304 213.752-28.552 125.08-135.128 213.776-261.864 219.904a282.544 282.544 0 0 1-269.496 196.912z m-6.032-793.08c-79.928 0-148.192 54.512-166.008 132.56-12.152 53.224 2.296 109.584 38.64 150.76a23.984 23.984 0 0 1-4 35.384 234.896 234.896 0 0 0-92.168 138.696c-13.992 61.264-3.28 124.304 30.152 177.52 33.432 53.208 85.584 90.216 146.848 104.2 17.312 3.952 35 5.952 52.576 5.952 108.08 0 201.832-73.36 227.992-178.408a24 24 0 0 1 23.288-18.2h0.392l3.76 0.032c110.328 0 204.544-75.216 229.136-182.928 13.992-61.264 3.28-124.312-30.152-177.52-33.432-53.208-85.584-90.216-146.848-104.2a234.696 234.696 0 0 0-137.544 10.04 23.984 23.984 0 0 1-29.36-10.136c-24.136-40.744-62.696-68.944-108.584-79.432a171.736 171.736 0 0 0-38.12-4.32z" fill="#8D4520" p-id="4121"></path><path d="M652.776 411.368m-152 0a152 152 0 1 0 304 0 152 152 0 1 0-304 0Z" fill="#F6E89A" p-id="4122"></path><path d="M652.776 579.368c-92.64 0-168-75.368-168-168s75.36-168 168-168 168 75.368 168 168-75.368 168-168 168z m0-304c-74.992 0-136 61.008-136 136s61.008 136 136 136 136-61.008 136-136-61.008-136-136-136z" fill="#8D4520" p-id="4123"></path><path d="M693.64 524.04c-83.944 0-152-68.056-152-152 0-34.832 11.84-66.824 31.544-92.456-36.152 27.792-59.544 71.336-59.544 120.456 0 83.944 68.056 152 152 152 49.12 0 92.664-23.4 120.456-59.544-25.632 19.696-57.624 31.544-92.456 31.544z" fill="#FFFFFF" p-id="4124"></path><path d="M753.608 539.488a16 16 0 0 1-12.888-25.472 134.856 134.856 0 0 0 26.44-80.312c0-74.992-61.008-136-136-136a135.256 135.256 0 0 0-94.2 38.064 16 16 0 1 1-22.184-23.064c31.504-30.304 72.832-47 116.384-47 92.64 0 168 75.368 168 168 0 35.84-11.288 70.168-32.648 99.248a15.936 15.936 0 0 1-12.904 6.536z" fill="#8D4520" p-id="4125"></path><path d="M652.776 579.368c-92.64 0-168-75.368-168-168s75.36-168 168-168 168 75.368 168 168-75.368 168-168 168z m0-304c-74.992 0-136 61.008-136 136s61.008 136 136 136 136-61.008 136-136-61.008-136-136-136z" fill="#8D4520" p-id="4126"></path></svg>