<?xml version="1.0" standalone="no"?><!DOCTYPE svg PUBLIC "-//W3C//DTD SVG 1.1//EN" "http://www.w3.org/Graphics/SVG/1.1/DTD/svg11.dtd"><svg t="1696481954674" class="icon" viewBox="0 0 1024 1024" version="1.1" xmlns="http://www.w3.org/2000/svg" p-id="5653" xmlns:xlink="http://www.w3.org/1999/xlink" width="200" height="200"><path d="M126.096 893.08a381.336 94.504 0 1 0 762.672 0 381.336 94.504 0 1 0-762.672 0Z" fill="#B8CBCD" p-id="5654"></path><path d="M376.776 315.584c0 128.136 103.872 236.384 232 236.384s232-108.248 232-236.384h-464z" fill="#FFBAB0" p-id="5655"></path><path d="M608.776 567.968c-136.744 0-248-113.216-248-252.384a16 16 0 0 1 16-16h464a16 16 0 0 1 16 16c0 139.168-111.256 252.384-248 252.384z m-215.44-236.384c8.056 114.088 101.608 204.384 215.44 204.384s207.376-90.296 215.44-204.384h-430.88z" fill="#783741" p-id="5656"></path><path d="M287.84 802.912c45.824 119.656 181.528 183.608 301.192 137.8 119.656-45.824 147.752-156.464 125.424-249.128 0 0-89.672 128-216.48 22-85.936-71.84-210.136 89.328-210.136 89.328z" fill="#FFBAB0" p-id="5657"></path><path d="M508.6 971.584c-103.664 0-198.384-65.488-235.704-162.952a15.992 15.992 0 0 1 2.272-15.488c3.584-4.656 88.824-114.008 172.992-114.008 22.264 0 42.48 7.464 60.072 22.168 30.392 25.408 60.76 38.288 90.256 38.288 62.064 0 102.456-56.624 102.848-57.192a15.992 15.992 0 0 1 28.664 5.432c21.984 91.232-0.248 216.12-135.256 267.824a240.08 240.08 0 0 1-86.144 15.928zM306.232 805.68c34.728 80.464 114.912 133.904 202.368 133.904 25.624 0 50.752-4.648 74.696-13.824 100.872-38.624 128.136-125.384 120.872-199.104-21.912 20.24-58.336 44.936-105.68 44.936-37.2 0-74.48-15.392-110.784-45.744-11.848-9.904-24.784-14.72-39.552-14.72-57.736 0.008-122.584 71.56-141.92 94.552z" fill="#783741" p-id="5658"></path><path d="M664.776 415.968m-40 0a40 40 0 1 0 80 0 40 40 0 1 0-80 0Z" fill="#FFFFFF" p-id="5659"></path><path d="M664.776 471.968c-30.88 0-56-25.128-56-56s25.12-56 56-56 56 25.128 56 56-25.12 56-56 56z m0-80c-13.232 0-24 10.768-24 24s10.768 24 24 24 24-10.768 24-24-10.768-24-24-24zM784.776 339.584a24 24 0 1 1 0-48c57.344 0 104-46.656 104-104s-46.656-104-104-104a24 24 0 1 1 0-48c83.816 0 152 68.184 152 152s-68.192 152-152 152z" fill="#783741" p-id="5660"></path><path d="M784.776 339.584a24 24 0 1 1 0-48c37.496 0 68-30.504 68-68s-30.504-68-68-68a24 24 0 1 1 0-48c63.96 0 116 52.04 116 116s-52.04 116-116 116z" fill="#783741" p-id="5661"></path><path d="M473.664 621.752c103.112 117.832 71.984 246.888 0.48 290.872s-187.64-14.936-259.408-131.592c-71.76-116.664-37.464-256.928 34.04-300.912 71.496-43.984 134.688 38.56 224.888 141.632z" fill="#FFBAB0" p-id="5662"></path><path d="M420.168 943.208c-75.6 0-161.584-60.368-219.056-153.792-75.08-122.072-40.528-273.824 39.288-322.92 15.608-9.6 31.832-14.472 48.216-14.472 58.768 0 111.408 60.6 178.064 137.336 6.216 7.152 12.552 14.456 19.032 21.848 54 61.704 78.128 132.752 67.936 200.056-7.56 49.92-33.48 91.832-71.12 114.984-18.288 11.256-39.264 16.96-62.36 16.96zM288.608 484.032c-10.528 0-20.816 3.176-31.456 9.72-67.216 41.352-94.432 172.184-28.792 278.904 50.984 82.872 128.056 138.552 191.8 138.552 17.088 0 32.432-4.112 45.592-12.2 29.168-17.936 50.184-52.528 56.24-92.52 8.752-57.832-12.688-119.696-60.376-174.184-6.504-7.44-12.872-14.768-19.112-21.944-61.296-70.592-109.72-126.328-153.896-126.328z" fill="#783741" p-id="5663"></path><path d="M269.979307 800.673335a152.008 248.008 13.403 1 0 114.975932-482.506381 152.008 248.008 13.403 1 0-114.975932 482.506381Z" fill="#FFBAB0" p-id="5664"></path><path d="M292.128 819.264a111.68 111.68 0 0 1-25.856-3.032C174.624 794.4 129.72 664.488 164.04 520.48c30.496-127.992 114.072-220.896 198.744-220.896 8.736 0 17.44 1.024 25.872 3.032 45.112 10.744 80.344 48.448 99.208 106.168 17.976 54.984 19.048 122.312 3.016 189.584-30.496 127.992-114.088 220.896-198.752 220.896z m70.656-487.68c-68.896 0-140.952 84.4-167.616 196.32-29.656 124.44 5.568 239.824 78.52 257.2 6 1.432 12.2 2.16 18.44 2.16 68.896 0 140.96-84.4 167.632-196.32 14.68-61.6 13.856-122.768-2.304-172.224-15.28-46.728-42.344-76.904-76.216-84.976a79.688 79.688 0 0 0-18.456-2.16z" fill="#783741" p-id="5665"></path><path d="M475.32 594.656c-18.544 152.928-123.688 225.472-205.344 206.016-81.664-19.464-122.128-143.24-90.376-276.48 31.744-133.24 123.68-225.48 205.344-206.016 81.656 19.456 106.864 140.512 90.376 276.48z" fill="#FFBAB0" p-id="5666"></path><path d="M296.72 819.768c-10.36 0-20.608-1.192-30.448-3.536C174.624 794.4 129.72 664.488 164.04 520.48c30.496-127.992 114.072-220.896 198.744-220.896 8.736 0 17.44 1.024 25.872 3.032C471.504 322.352 510.8 434.992 491.2 596.584c-17.768 146.52-111.288 223.184-194.48 223.184z m66.064-488.184c-68.896 0-140.952 84.4-167.616 196.32-29.656 124.44 5.568 239.824 78.52 257.2 7.416 1.768 15.168 2.664 23.032 2.664 69.104 0 147.184-67 162.72-195.048 17.208-141.904-13.488-243.56-78.2-258.984a80.12 80.12 0 0 0-18.456-2.152z" fill="#783741" p-id="5667"></path><path d="M332.168 623.208c-14.04 0-27.264-1.384-38.912-4.016-52.456-11.848-81.72-29.744-115.984-70.904a16 16 0 1 1 24.592-20.464c29.792 35.792 52.792 49.84 98.44 60.16 49.328 11.136 136.92-5.072 166.16-63.544a16.016 16.016 0 0 1 28.632 14.312c-29.88 59.736-103.616 84.456-162.928 84.456z" fill="#783741" p-id="5668"></path><path d="M502.28 981.656c-43.44 0-86.704-11.328-125.384-32.8-69.184-15.92-139.576-72.888-188.968-153.168a292.08 292.08 0 0 1-32.592-74.6c-20.592-57.584-22.528-128.704-5.448-200.384 32.472-136.304 124.88-234.104 216.112-226.64 1.432-0.264 2.904-0.408 4.408-0.408h464a24 24 0 0 1 24 24c0 143.576-114.84 260.384-256 260.384a248.8 248.8 0 0 1-101.776-21.808 423.12 423.12 0 0 1-8.016 44.736 366.816 366.816 0 0 1-1.92 13.288c28.848 34.512 48.6 71.432 58.848 109.96 14.384 6.208 28.672 9.36 42.608 9.36 57.328 0 95.952-53.24 96.336-53.784a24.04 24.04 0 0 1 42.928 8.232c22.744 94.392-0.32 223.608-140.168 277.168a247.712 247.712 0 0 1-88.968 16.464zM356 340c-64.224 0-134.008 85.208-159.416 191.84-14.808 62.144-13.272 125.496 4.208 173.824 0.208 0.592 0.4 1.184 0.568 1.8a243.944 243.944 0 0 0 27.448 63.096c42.848 69.648 104.792 120.28 161.648 132.152 2.472 0.512 4.848 1.416 7.04 2.672 54.128 31.064 119.648 36.808 176.576 15.008 90.144-34.512 119.512-107.024 117-175.472-23.344 18.408-57.048 36.68-98.928 36.68-24.856 0-49.904-6.528-74.432-19.416a24 24 0 0 1-12.312-16.216c-7.936-37.016-26.832-72.792-56.168-106.312l-2.216-2.544a23.968 23.968 0 0 1-5.512-20.352c1.552-8.048 2.736-15.536 3.632-22.896 0.112-0.896 0.272-1.792 0.48-2.672a368.576 368.576 0 0 0 9.976-74.296 24 24 0 0 1 37-19.448c33.08 21.344 71.056 32.624 109.824 32.624 104.824 0 197.488-85.744 209.584-190.072h-448-8z" fill="#783741" p-id="5669"></path><path d="M510.704 947.376c-29.944 0-61.488-5.712-93.92-17.16-149.824-52.872-248.504-191.064-239.968-336.04 8.408-143.032 129.304-273.52 134.448-279.008a24 24 0 0 1 35.024 32.816c-1.304 1.4-114.184 123.584-121.56 249-7.16 121.792 80.328 242.888 208.032 287.96 56.576 19.968 108.784 19.128 150.976-2.456 45.192-23.12 79.088-69.344 98.016-133.688a24 24 0 0 1 46.048 13.552c-22.728 77.288-64.992 133.616-122.208 162.872-28.848 14.76-60.832 22.152-94.888 22.152z" fill="#783741" p-id="5670"></path></svg>